<svg xmlns="http://www.w3.org/2000/svg" width="1600" height="900" viewBox="0 0 1600 900">
<defs><marker id="arrow" markerWidth="10" markerHeight="10" refX="9" refY="5" orient="auto"><path d="M0 0L10 5L0 10" fill="#48d5bd"/></marker></defs>
<rect width="1600" height="900" fill="#10151c"/>
<g font-family="Arial,sans-serif" fill="#eef3f8">
<text x="80" y="105" font-size="48" font-weight="bold">Граф денег</text>
<text x="80" y="157" font-size="24" fill="#aab9c9">От наблюдаемых переводов к объяснимому приоритету проверки</text>
<g fill="#1b2936" stroke="#48d5bd" stroke-width="2">
<rect x="80" y="230" width="300" height="170" rx="16"/><rect x="470" y="230" width="300" height="170" rx="16"/><rect x="860" y="230" width="300" height="170" rx="16"/>
<rect x="860" y="510" width="300" height="170" rx="16"/><rect x="470" y="510" width="300" height="170" rx="16"/><rect x="80" y="510" width="300" height="170" rx="16"/>
</g>
<g font-size="26" font-weight="bold"><text x="105" y="278">01 · Три parquet</text><text x="495" y="278">02 · Валидация</text><text x="885" y="278">03 · Граф и роли</text><text x="885" y="558">04 · Приоритет</text><text x="495" y="558">05 · CSV</text><text x="105" y="558">06 · Интерфейс</text></g>
<g font-size="21" fill="#c1cedb"><text x="105" y="325">nodes / edges</text><text x="105" y="360">transactions</text><text x="495" y="325">pyarrow · схема · ссылки</text><text x="495" y="360">суммы и число переводов</text><text x="885" y="325">NetworkX · признаки</text><text x="885" y="360">Louvain · шесть ролей</text><text x="885" y="605">4 численных вклада</text><text x="885" y="640">evidence / explanation</text><text x="495" y="605">3 обязательных выгрузки</text><text x="495" y="640">метрики и metadata</text><text x="105" y="605">Streamlit + PyVis</text><text x="105" y="640">поиск · карточки · граф</text></g>
<g stroke="#48d5bd" stroke-width="4" fill="none" marker-end="url(#arrow)"><path d="M385 315H455"/><path d="M775 315H845"/><path d="M1010 405V495"/><path d="M855 595H785"/><path d="M465 595H395"/></g>
<text x="1240" y="285" font-size="22" fill="#48d5bd">Локальный запуск</text><text x="1240" y="330" font-size="23">python run.py</text><text x="1240" y="400" font-size="20" fill="#aab9c9">gid — строки в UI</text><text x="1240" y="440" font-size="20" fill="#aab9c9">Без CDN</text><text x="1240" y="480" font-size="20" fill="#aab9c9">Фильтры не меняют CSV</text>
<text x="80" y="785" font-size="23" fill="#aab9c9">Роли — структурные гипотезы. Depth=4, неполный вход seed, порог 5000 KZT, нет ground truth.</text>
</g></svg>
